<?xml version="1.0" encoding="UTF-8" standalone="no"?>
<!DOCTYPE svg PUBLIC "-//W3C//DTD SVG 1.1//EN" "http://www.w3.org/Graphics/SVG/1.1/DTD/svg11.dtd">
<svg width="100%" height="100%" viewBox="0 0 32 32" version="1.1" xmlns="http://www.w3.org/2000/svg" xmlns:xlink="http://www.w3.org/1999/xlink" xml:space="preserve" xmlns:serif="http://www.serif.com/" style="fill-rule:evenodd;clip-rule:evenodd;stroke-linejoin:round;stroke-miterlimit:2;">
    <g id="Layer_2">
    </g>
    <g transform="matrix(0,0.780213,-0.780213,0,26.133224,3.592282)">
        <path d="M11.245,6.36C11.245,6.084 11.469,5.86 11.745,5.86L23.24,5.86C23.517,5.86 23.74,6.084 23.74,6.36L23.74,9.127C23.74,9.403 23.517,9.627 23.24,9.627L11.745,9.627C11.469,9.627 11.245,9.403 11.245,9.127L11.245,6.36ZM12.171,15.929C11.895,15.929 11.671,16.153 11.671,16.429L11.671,25.635C11.671,25.911 11.895,26.135 12.171,26.135L20.259,26.135C20.535,26.135 20.759,25.911 20.759,25.635L20.759,16.429C20.759,16.153 20.535,15.929 20.259,15.929L12.171,15.929ZM13.091,17.093L14.511,17.093L14.511,18.395L13.091,18.395L13.091,17.093ZM16.925,17.093L15.505,17.093L15.505,18.395L16.925,18.395L16.925,17.093ZM18.061,17.093L19.481,17.093L19.481,18.395L18.061,18.395L18.061,17.093ZM14.511,19.354L13.091,19.354L13.091,20.655L14.511,20.655L14.511,19.354ZM15.505,19.354L16.925,19.354L16.925,20.655L15.505,20.655L15.505,19.354ZM19.481,19.354L18.061,19.354L18.061,20.655L19.481,20.655L19.481,19.354ZM13.091,21.546L14.511,21.546L14.511,22.847L13.091,22.847L13.091,21.546ZM16.925,21.546L15.505,21.546L15.505,22.847L16.925,22.847L16.925,21.546ZM18.061,21.546L19.481,21.546L19.481,22.847L18.061,22.847L18.061,21.546ZM14.511,23.806L13.091,23.806L13.091,25.107L14.511,25.107L14.511,23.806ZM15.505,23.806L16.925,23.806L16.925,25.107L15.505,25.107L15.505,23.806ZM19.481,23.806L18.061,23.806L18.061,25.107L19.481,25.107L19.481,23.806ZM26.436,32.089L26.474,3.36L6.418,3.36L6.418,32.089L26.436,32.089Z" style="fill:white;"/>
    </g>
</svg>
