<?xml version="1.0" encoding="UTF-8" standalone="no"?>
<!DOCTYPE svg PUBLIC "-//W3C//DTD SVG 1.1//EN" "http://www.w3.org/Graphics/SVG/1.1/DTD/svg11.dtd">
<svg width="100%" height="100%" viewBox="0 0 32 32" version="1.1" xmlns="http://www.w3.org/2000/svg" xmlns:xlink="http://www.w3.org/1999/xlink" xml:space="preserve" xmlns:serif="http://www.serif.com/" style="fill-rule:evenodd;clip-rule:evenodd;stroke-linejoin:round;stroke-miterlimit:2;">
    <g id="dude-transit">
        <path d="M15.5,-4.2L16.25,-5.25L17.25,-8.35L21.15,-11L21.15,-11.05C21.217,-11.15 21.25,-11.283 21.25,-11.45C21.25,-11.65 21.2,-11.833 21.1,-12C20.933,-12.233 20.717,-12.35 20.45,-12.35L16.15,-10.55L14.95,-8.9L13.45,-12.85L15.7,-17.9L12.45,-24.8C12.183,-25 11.817,-25.1 11.35,-25.1C11.05,-25.1 10.8,-24.95 10.6,-24.65C10.5,-24.517 10.45,-24.4 10.45,-24.3C10.45,-24.233 10.467,-24.15 10.5,-24.05C10.533,-23.95 10.567,-23.866 10.6,-23.8L13.15,-18.2L10.7,-14L7.65,-18.9L0.8,-18.7C0.433,-18.667 0.2,-18.516 0.1,-18.25C0.033,-17.95 0,-17.783 0,-17.75C0,-17.25 0.2,-16.983 0.6,-16.95L6.3,-16.8L8.45,-11.4L11.55,-5.75L9.4,-5.6C8.033,-7.6 7.3,-8.633 7.2,-8.7C7.1,-8.8 6.95,-8.85 6.75,-8.85C6.35,-8.85 6.1,-8.667 6,-8.3C5.9,-8 5.9,-7.8 6,-7.7L5.95,-7.7L8.45,-3.3L12.15,-3L14,-3.5L15.5,-4.2ZM14.55,-2.9C14.217,-2.5 14.1,-2.05 14.2,-1.55C14.233,-1.05 14.45,-0.65 14.85,-0.35C15.25,-0.05 15.7,0.066 16.2,0C16.7,-0.067 17.1,-0.3 17.4,-0.7C17.733,-1.1 17.867,-1.55 17.8,-2.05C17.734,-2.55 17.5,-2.95 17.1,-3.25C16.7,-3.583 16.25,-3.7 15.75,-3.6C15.25,-3.533 14.85,-3.3 14.55,-2.9Z" style="fill:white;"/>
    </g>
    <g id="Layer_1">
        <g transform="matrix(1,0,0,1,-0.114035,-0.19393)">
            <g>
                <path d="M18.304,7.498C18.27,6.396 18.237,5.296 18.203,4.195L18.203,3.911C18.203,3.624 18.229,3.062 18.12,2.877C18.011,2.693 17.666,2.399 17.285,2.494C17.004,2.563 16.803,2.775 16.735,3.06C16.73,3.388 16.724,3.716 16.718,4.043C16.661,4.307 16.685,4.665 16.685,4.944L16.685,5.261C16.648,5.434 16.71,5.684 16.668,5.877C16.63,6.05 16.692,6.301 16.651,6.495C16.591,6.77 16.615,7.192 16.617,7.496L18.304,7.496L18.304,7.498ZM11.097,6.78C11.212,7.001 11.401,7.242 11.464,7.498L13.366,7.498C13.327,7.383 13.241,7.292 13.182,7.197C13.056,6.994 12.937,6.792 12.815,6.596C12.46,6.032 12.131,5.452 11.781,4.895C11.57,4.561 11.438,4.2 10.897,4.195C10.845,4.231 10.77,4.227 10.713,4.261C10.566,4.348 10.381,4.48 10.312,4.645C10.154,5.025 10.386,5.377 10.53,5.613C10.755,5.983 10.896,6.396 11.097,6.78ZM23.774,4.195C23.628,4.309 23.447,4.358 23.34,4.511C23.164,4.765 23.037,5.034 22.873,5.295C22.614,5.704 22.33,6.119 22.072,6.529C21.919,6.771 21.77,7.011 21.622,7.246C21.573,7.323 21.556,7.407 21.488,7.463L21.488,7.497C22.135,7.499 22.884,7.444 23.323,7.646C23.5,7.283 23.7,6.918 23.907,6.579C24.026,6.384 24.088,6.175 24.208,5.979C24.354,5.738 24.555,5.458 24.641,5.177C24.814,4.622 24.266,4.182 23.774,4.195ZM26.627,11.802C27.219,11.435 27.825,11.094 28.412,10.735C28.66,10.582 28.936,10.477 29.162,10.3C29.435,10.087 29.455,9.487 29.246,9.199C29.112,9.014 28.838,8.995 28.512,8.999C28.469,9.031 28.415,9.024 28.363,9.049C28.219,9.113 28.062,9.204 27.913,9.282C27.425,9.536 26.919,9.765 26.428,10.033C26.145,10.187 25.841,10.329 25.544,10.483C25.433,10.541 25.324,10.635 25.193,10.667L25.193,12.652C25.376,12.601 25.529,12.461 25.677,12.368C25.992,12.172 26.317,11.994 26.627,11.802ZM30.58,15.455C30.297,15.449 30.014,15.443 29.729,15.437C29.295,15.42 28.862,15.405 28.428,15.387L27.978,15.387C27.725,15.332 27.382,15.354 27.11,15.354L26.81,15.354C26.648,15.319 26.409,15.377 26.226,15.337C25.956,15.278 25.497,15.301 25.192,15.303L25.192,16.989C25.512,16.989 25.966,17.018 26.26,16.956C26.48,16.908 26.76,16.982 26.96,16.938L27.311,16.938C27.625,16.938 28.073,16.967 28.362,16.905L28.712,16.905C29.026,16.905 29.474,16.934 29.763,16.873L30.464,16.873C30.878,16.783 31.087,16.692 31.181,16.289C31.276,15.884 30.831,15.523 30.58,15.455ZM28.479,21.677C27.854,21.282 27.21,20.908 26.578,20.509C26.267,20.313 25.944,20.126 25.628,19.925C25.497,19.842 25.357,19.7 25.193,19.658L25.193,21.576C25.22,21.632 25.339,21.644 25.393,21.677C25.606,21.807 25.84,21.909 26.06,22.044C26.5,22.312 26.981,22.522 27.428,22.794C27.711,22.967 28.027,23.173 28.329,23.312C28.612,23.442 29.097,23.383 29.246,23.179C29.483,22.853 29.404,22.255 29.112,22.044C28.913,21.898 28.688,21.81 28.479,21.677ZM23.541,25.013L23.357,25.013C23.239,25.09 23.012,25.023 22.89,25.096L21.672,25.096C21.756,25.353 22.044,25.7 22.19,25.931C22.576,26.545 22.919,27.168 23.307,27.782C23.414,27.953 23.765,28.289 24.108,28.149C24.409,28.027 24.799,27.673 24.641,27.166C24.274,26.447 23.908,25.729 23.541,25.013ZM11.03,25.613C10.864,25.991 10.696,26.336 10.53,26.715C10.458,26.879 10.338,27.034 10.279,27.215C10.121,27.707 10.532,28.078 10.846,28.166C11.294,28.29 11.576,27.785 11.714,27.564C12.039,27.042 12.372,26.502 12.697,25.98C12.857,25.721 13.018,25.326 13.215,25.113L13.215,25.095L11.28,25.095C11.228,25.285 11.104,25.446 11.03,25.613ZM18.304,25.096L16.618,25.096C16.617,25.388 16.596,25.783 16.652,26.047C16.69,26.231 16.633,26.469 16.669,26.631C16.708,26.815 16.65,27.053 16.686,27.215L16.686,27.515C16.686,27.786 16.665,28.129 16.719,28.382C16.725,28.689 16.731,28.994 16.736,29.3C16.812,29.625 17.028,29.824 17.353,29.901C17.687,29.979 18.055,29.634 18.137,29.451C18.235,29.229 18.203,28.805 18.203,28.516L18.203,28.233C18.236,27.188 18.27,26.142 18.304,25.096Z" style="fill:white;"/>
                <g transform="matrix(0,0.780213,-0.780213,0,26.070224,3.362555)">
                    <path d="M11.245,6.36C11.245,6.084 11.469,5.86 11.745,5.86L23.24,5.86C23.517,5.86 23.74,6.084 23.74,6.36L23.74,9.127C23.74,9.403 23.517,9.627 23.24,9.627L11.745,9.627C11.469,9.627 11.245,9.403 11.245,9.127L11.245,6.36ZM12.171,15.929C11.895,15.929 11.671,16.153 11.671,16.429L11.671,25.635C11.671,25.911 11.895,26.135 12.171,26.135L20.259,26.135C20.535,26.135 20.759,25.911 20.759,25.635L20.759,16.429C20.759,16.153 20.535,15.929 20.259,15.929L12.171,15.929ZM13.091,17.093L14.511,17.093L14.511,18.395L13.091,18.395L13.091,17.093ZM16.925,17.093L15.505,17.093L15.505,18.395L16.925,18.395L16.925,17.093ZM18.061,17.093L19.481,17.093L19.481,18.395L18.061,18.395L18.061,17.093ZM14.511,19.354L13.091,19.354L13.091,20.655L14.511,20.655L14.511,19.354ZM15.505,19.354L16.925,19.354L16.925,20.655L15.505,20.655L15.505,19.354ZM19.481,19.354L18.061,19.354L18.061,20.655L19.481,20.655L19.481,19.354ZM13.091,21.546L14.511,21.546L14.511,22.847L13.091,22.847L13.091,21.546ZM16.925,21.546L15.505,21.546L15.505,22.847L16.925,22.847L16.925,21.546ZM18.061,21.546L19.481,21.546L19.481,22.847L18.061,22.847L18.061,21.546ZM14.511,23.806L13.091,23.806L13.091,25.107L14.511,25.107L14.511,23.806ZM15.505,23.806L16.925,23.806L16.925,25.107L15.505,25.107L15.505,23.806ZM19.481,23.806L18.061,23.806L18.061,25.107L19.481,25.107L19.481,23.806ZM26.436,32.089L26.474,3.36L6.418,3.36L6.418,32.089L26.436,32.089Z" style="fill:white;"/>
                </g>
            </g>
        </g>
    </g>
</svg>
