<?xml version="1.0" encoding="UTF-8" standalone="no"?>
<!DOCTYPE svg PUBLIC "-//W3C//DTD SVG 1.1//EN" "http://www.w3.org/Graphics/SVG/1.1/DTD/svg11.dtd">
<svg width="100%" height="100%" viewBox="0 0 32 32" version="1.1" xmlns="http://www.w3.org/2000/svg" xmlns:xlink="http://www.w3.org/1999/xlink" xml:space="preserve" xmlns:serif="http://www.serif.com/" style="fill-rule:evenodd;clip-rule:evenodd;stroke-linejoin:round;stroke-miterlimit:2;">
    <g transform="matrix(1,0,0,1,-0.321015,-0.088556)">
        <path d="M6.418,21.801L6.418,19.786C6.2,19.964 5.759,20.332 5.672,20.724C5.614,20.986 5.946,21.318 6.2,21.57C6.289,21.659 6.369,21.738 6.418,21.801ZM23.989,1.716C24.097,1.89 24.279,2.338 24.431,2.737C23.907,2.581 23.042,2.326 22.386,2.142C22.388,1.981 22.404,1.834 22.462,1.647C22.493,1.549 22.64,1.27 22.711,1.168C22.782,1.065 23.172,1.031 23.314,1.065C23.428,1.092 23.776,1.373 23.989,1.716ZM22.533,3.12L22.533,3.338C23.186,3.331 23.889,3.327 24.472,3.332C24.336,3.246 24.145,3.141 23.953,3.086C23.836,3.052 23.727,3.02 23.625,2.99C23.192,2.864 22.862,2.767 22.406,2.659L22.533,3.12ZM17.572,2.01C16.256,1.751 14.546,1.031 14.546,1.031C14.073,0.871 13.098,0.551 12.701,0.551C12.204,0.551 11.131,0.962 10.89,1.716C10.663,2.428 10.701,2.697 10.748,2.743L10.677,3.086L10.652,3.36L17.191,3.36L17.28,2.846L17.422,2.469C17.486,2.319 17.53,2.166 17.572,2.01ZM17.954,3.36L17.954,3.223L18.132,2.469C18.132,2.469 18.166,2.319 18.223,2.106C18.532,2.139 18.821,2.155 19.116,2.172C19.544,2.196 19.984,2.22 20.51,2.298C20.616,2.313 20.714,2.328 20.807,2.343L21.779,3.347C21.515,3.351 17.954,3.36 17.954,3.36ZM20.22,1.736C19.559,1.654 18.826,1.579 18.416,1.579C18.402,1.579 18.388,1.578 18.373,1.578C18.398,1.498 18.424,1.417 18.451,1.339C18.522,1.134 18.735,0.996 19.019,0.996C19.262,0.996 19.634,1.213 19.836,1.339L20.22,1.736ZM8.122,2.983L8.289,3.36L6.737,3.36L6.737,4.661L6.157,4.661C6.123,4.462 6.027,3.865 6.027,3.36C6.027,3.116 6.134,2.743 6.134,2.743C6.24,2.549 6.574,2.161 7.057,2.161C7.539,2.161 7.826,2.389 7.909,2.503L8.122,2.983ZM11.245,6.36C11.245,6.084 11.469,5.86 11.745,5.86L23.24,5.86C23.517,5.86 23.74,6.084 23.74,6.36L23.74,9.127C23.74,9.403 23.517,9.627 23.24,9.627L11.745,9.627C11.469,9.627 11.245,9.403 11.245,9.127L11.245,6.36ZM12.171,15.929C11.895,15.929 11.671,16.153 11.671,16.429L11.671,25.635C11.671,25.911 11.895,26.135 12.171,26.135L20.259,26.135C20.535,26.135 20.759,25.911 20.759,25.635L20.759,16.429C20.759,16.153 20.535,15.929 20.259,15.929L12.171,15.929ZM13.091,17.093L14.511,17.093L14.511,18.395L13.091,18.395L13.091,17.093ZM16.925,17.093L15.505,17.093L15.505,18.395L16.925,18.395L16.925,17.093ZM18.061,17.093L19.481,17.093L19.481,18.395L18.061,18.395L18.061,17.093ZM14.511,19.354L13.091,19.354L13.091,20.655L14.511,20.655L14.511,19.354ZM15.505,19.354L16.925,19.354L16.925,20.655L15.505,20.655L15.505,19.354ZM19.481,19.354L18.061,19.354L18.061,20.655L19.481,20.655L19.481,19.354ZM13.091,21.546L14.511,21.546L14.511,22.847L13.091,22.847L13.091,21.546ZM16.925,21.546L15.505,21.546L15.505,22.847L16.925,22.847L16.925,21.546ZM18.061,21.546L19.481,21.546L19.481,22.847L18.061,22.847L18.061,21.546ZM14.511,23.806L13.091,23.806L13.091,25.107L14.511,25.107L14.511,23.806ZM15.505,23.806L16.925,23.806L16.925,25.107L15.505,25.107L15.505,23.806ZM19.481,23.806L18.061,23.806L18.061,25.107L19.481,25.107L19.481,23.806ZM26.436,24.395C26.492,24.388 26.542,24.376 26.58,24.354L26.606,24.339C26.802,24.227 27.261,23.964 27.468,23.395C27.684,22.798 27.577,22.435 27.499,22.17L27.499,22.17C27.488,22.131 27.477,22.094 27.468,22.059C27.416,21.86 26.935,21.271 26.758,21.1C26.694,21.039 26.57,20.97 26.436,20.907L26.436,24.395ZM26.436,24.994C26.845,24.74 27.449,24.235 27.61,24.08C27.823,23.874 28,23.294 28,22.984C28,22.575 27.85,22.195 27.744,21.924L27.716,21.854C27.701,21.816 27.683,21.765 27.662,21.705C27.547,21.385 27.334,20.789 27.006,20.347C26.867,20.159 26.663,19.954 26.474,19.779L26.474,3.36C26.474,3.36 25.421,3.354 25.366,3.351C25.316,3.296 25.226,3.226 25.119,3.152L24.699,1.99C24.604,1.784 24.287,1.25 24.202,1.168C24.191,1.157 24.177,1.144 24.161,1.127L24.16,1.127C24.011,0.98 23.644,0.616 23.421,0.585C23.232,0.559 22.853,0.551 22.64,0.585C22.427,0.62 22.108,1.031 22.037,1.168C22.028,1.183 22.018,1.203 22.006,1.225L22.006,1.225C21.935,1.36 21.808,1.598 21.788,1.716L21.749,1.969C21.655,1.946 21.583,1.929 21.54,1.921C21.475,1.91 21.366,1.893 21.228,1.872C20.931,1.547 20.577,1.196 20.084,0.791C19.73,0.5 19.41,0.448 18.948,0.448C18.487,0.448 18.274,0.551 18.025,0.894C17.885,1.087 17.796,1.279 17.728,1.47C16.943,1.278 15.87,0.874 15.196,0.619C15.054,0.566 14.931,0.52 14.831,0.483C14.085,0.209 13.269,-0.031 12.63,0.003C11.991,0.038 11.347,0.362 11.032,0.551C10.748,0.722 10.441,1.27 10.322,1.579L10.145,2.161L10.038,2.606L9.967,2.846L9.908,3.36L8.926,3.36L8.406,2.229C8.398,2.221 8.39,2.212 8.381,2.203C8.247,2.056 7.935,1.716 7.27,1.716C6.612,1.716 6.362,1.877 6.056,2.074L6.027,2.092C5.708,2.298 5.547,2.639 5.53,3.017C5.503,3.619 5.58,4.262 5.617,4.577L5.627,4.661L4.394,4.661C4.276,5.163 4.032,6.339 4.004,7.024C3.975,7.709 4.11,9.113 4.181,9.73L4.394,9.73L4.394,15.484L6.418,15.484L6.418,18.018L5.814,18.6C5.776,18.659 5.697,18.741 5.603,18.839C5.351,19.103 4.992,19.479 5.033,19.799C5.079,20.155 5.248,20.68 5.37,21.06C5.435,21.265 5.488,21.428 5.5,21.5C5.513,21.574 5.682,21.774 5.882,22.011C6.067,22.231 6.28,22.483 6.418,22.693L6.418,32.089L26.436,32.089C26.436,32.089 26.424,26.785 26.436,24.994Z" style="fill:white;"/>
    </g>
</svg>
