<?xml version="1.0" encoding="UTF-8" standalone="no"?>
<!DOCTYPE svg PUBLIC "-//W3C//DTD SVG 1.1//EN" "http://www.w3.org/Graphics/SVG/1.1/DTD/svg11.dtd">
<svg width="100%" height="100%" viewBox="0 0 36 32" version="1.1" xmlns="http://www.w3.org/2000/svg" xmlns:xlink="http://www.w3.org/1999/xlink" xml:space="preserve" xmlns:serif="http://www.serif.com/" style="fill-rule:evenodd;clip-rule:evenodd;stroke-linejoin:round;stroke-miterlimit:2;">
    <g transform="matrix(0.054056,0,0,0.054056,5.383501,0.000018)">
        <path d="M361.321,549.306L169.528,549.306C166.7,549.306 163.997,548.181 161.997,546.181C159.997,544.181 158.872,541.478 158.872,538.635L158.872,394.64L180.216,394.64L180.2,527.979L350.665,527.979L350.665,373.313L371.993,373.313L371.993,538.635C371.993,544.541 367.212,549.306 361.321,549.306Z" style="fill:white;fill-rule:nonzero;"/>
    </g>
    <g transform="matrix(0.054056,0,0,0.054056,5.383501,0.000018)">
        <path d="M446.662,591.977L126.873,591.977C124.045,591.977 121.326,590.852 119.326,588.852C117.326,586.852 116.201,584.133 116.201,581.305L116.217,394.64L137.544,394.64L137.528,570.634L435.989,570.634L435.989,373.313L457.333,373.313L457.333,581.305C457.334,587.196 452.553,591.977 446.662,591.977Z" style="fill:white;fill-rule:nonzero;"/>
    </g>
    <g transform="matrix(0.043906,0,0,0.057059,4.09048,0.033514)">
        <path d="M266.662,0C296.067,0 319.987,-6.394 319.987,23.011L319.987,360.957C319.987,390.363 296.067,383.985 266.662,383.985L74.669,383.985C45.264,383.985 21.327,390.363 21.327,360.957L21.327,23.011C21.327,-6.394 45.264,0 74.669,0L266.662,0ZM226.368,295.484C257.146,271.817 257.146,233.426 226.368,209.75C195.59,186.073 145.71,186.073 114.931,209.75C84.173,233.426 84.173,271.817 114.931,295.484C145.71,319.168 195.59,319.168 226.368,295.484ZM277.32,40.417L64,40.417L64,141.465L277.32,141.465L277.32,40.417Z" style="fill:white;"/>
    </g>
    <g transform="matrix(0.054056,0,0,0.054056,2.357927,0.033676)">
        <path d="M148.041,299.957C145.307,299.957 142.572,298.895 140.494,296.833C136.322,292.661 136.322,285.895 140.494,281.739L185.742,236.482C189.914,232.318 196.664,232.318 200.835,236.482C204.991,240.646 204.991,247.404 200.835,251.568L155.571,296.833C153.494,298.894 150.76,299.957 148.041,299.957Z" style="fill:white;fill-rule:nonzero;"/>
    </g>
    <g transform="matrix(0.04514,0,0,0.054056,8.712143,0.000018)">
        <path d="M380.298,138.658L337.627,138.658C331.736,138.658 326.956,143.431 326.956,149.322L326.956,373.313C326.956,379.204 331.736,383.985 337.627,383.985L380.298,383.985C386.189,383.985 390.954,379.204 390.954,373.313L390.954,149.322C390.954,143.431 386.189,138.658 380.298,138.658Z" style="fill:white;fill-rule:nonzero;"/>
    </g>
    <g transform="matrix(0.04514,0,0,0.054056,9.473142,0.000018)">
        <path d="M465.622,138.658L422.951,138.658C417.06,138.658 412.297,143.431 412.297,149.322L412.297,373.313C412.297,379.204 417.061,383.985 422.951,383.985L465.622,383.985C471.513,383.985 476.294,379.204 476.294,373.313L476.294,149.322C476.294,143.431 471.513,138.658 465.622,138.658Z" style="fill:white;fill-rule:nonzero;"/>
    </g>
    <g transform="matrix(0.032652,0,0,0.054056,13.374138,0.000018)">
        <path d="M364.133,138.658L342.805,138.658L342.805,74.66L353.461,63.996L364.133,74.66L364.133,138.658Z" style="fill:white;fill-rule:nonzero;"/>
    </g>
    <g transform="matrix(0.032652,0,0,0.054056,15.200451,0.000018)">
        <path d="M449.458,138.658L428.13,138.658L428.13,74.66L438.802,63.996L449.458,74.66L449.458,138.658Z" style="fill:white;fill-rule:nonzero;"/>
    </g>
</svg>
