<?xml version="1.0" encoding="UTF-8" standalone="no"?>
<!DOCTYPE svg PUBLIC "-//W3C//DTD SVG 1.1//EN" "http://www.w3.org/Graphics/SVG/1.1/DTD/svg11.dtd">
<svg width="100%" height="100%" viewBox="0 0 256 256" version="1.1" xmlns="http://www.w3.org/2000/svg" xmlns:xlink="http://www.w3.org/1999/xlink" xml:space="preserve" xmlns:serif="http://www.serif.com/" style="fill-rule:evenodd;clip-rule:evenodd;stroke-linejoin:round;stroke-miterlimit:2;">
    <ellipse cx="128" cy="127.833" rx="128" ry="127.833" style="fill:rgb(94,123,147);"/>
    <ellipse cx="128.418" cy="127.833" rx="118.833" ry="118.678"/>
    <g transform="matrix(0.252784,0,0,0.252784,128,128)">
        <g transform="matrix(1,0,0,1,-400,-400)">
            <clipPath id="_clip1">
                <rect x="0" y="0" width="800" height="800"/>
            </clipPath>
            <g clip-path="url(#_clip1)">
                <g id="Page-1" transform="matrix(40,0,0,40,0,120)">
                    <g id="Dribbble-Light-Preview" transform="matrix(1,0,0,1,-380,-3642)">
                        <g id="icons" transform="matrix(1,0,0,1,56,160)">
                            <path id="wifi---1020-" serif:id="wifi-[#1020]" d="M332.571,3494.586L333.999,3496L335.428,3494.586C334.639,3493.805 333.36,3493.805 332.571,3494.586M329.714,3491.758L331.143,3493.172C332.718,3491.612 335.281,3491.612 336.857,3493.172L338.286,3491.758C335.919,3489.414 332.081,3489.414 329.714,3491.758M324,3486.101L325.428,3487.515C330.155,3482.836 337.845,3482.836 342.571,3487.515L344,3486.101C338.476,3480.633 329.523,3480.633 324,3486.101M341.142,3488.929L339.714,3490.343C336.563,3487.224 331.437,3487.224 328.285,3490.343L326.857,3488.929C330.801,3485.024 337.198,3485.024 341.142,3488.929" style="fill:rgb(90,115,131);stroke:rgb(90,115,131);stroke-width:0.03px;"/>
                        </g>
                    </g>
                </g>
            </g>
        </g>
    </g>
</svg>
