<?xml version="1.0" encoding="UTF-8" standalone="no"?>
<!DOCTYPE svg PUBLIC "-//W3C//DTD SVG 1.1//EN" "http://www.w3.org/Graphics/SVG/1.1/DTD/svg11.dtd">
<svg width="100%" height="100%" viewBox="0 0 256 256" version="1.1" xmlns="http://www.w3.org/2000/svg" xmlns:xlink="http://www.w3.org/1999/xlink" xml:space="preserve" xmlns:serif="http://www.serif.com/" style="fill-rule:evenodd;clip-rule:evenodd;stroke-linejoin:round;stroke-miterlimit:2;">
    <ellipse cx="128" cy="127.833" rx="128" ry="127.833" style="fill:rgb(69,61,49);"/>
    <g transform="matrix(1,0,0,1,-0.583,0.167)">
        <ellipse cx="128.583" cy="127.833" rx="118.832" ry="118.678" style="fill:url(#_Radial1);"/>
    </g>
    <g transform="matrix(6.155476,0,0,6.155476,128,128)">
        <g transform="matrix(1,0,0,1,-16,-16)">
            <g id="Layer_2">
                <g transform="matrix(0.950295,0,0,0.950295,0.795308,0.794335)">
                    <path d="M15.619,31.762C15.232,31.762 14.917,31.447 14.917,31.06L14.917,15.686L14.781,15.477C13.756,14.949 13.194,13.849 13.375,12.693C13.543,11.613 14.444,10.691 15.517,10.502C15.681,10.473 15.842,10.46 16.001,10.46C17.467,10.46 18.66,11.653 18.66,13.119C18.66,14.112 18.1,15.022 17.22,15.478L17.084,15.688L17.084,30.961C17.084,31.404 16.724,31.764 16.282,31.764L15.619,31.764L15.619,31.762Z" style="fill:rgb(86,76,61);stroke:rgb(86,76,61);stroke-width:1.05px;"/>
                </g>
                <g transform="matrix(0.950295,0,0,0.950295,0.795308,0.794335)">
                    <path d="M15.619,31.274C15.501,31.274 15.405,31.178 15.405,31.06L15.405,15.542L15.116,15.096C14.21,14.69 13.703,13.754 13.857,12.768C13.993,11.887 14.726,11.137 15.601,10.982C15.736,10.959 15.869,10.947 16,10.947C17.196,10.947 18.171,11.92 18.171,13.117C18.171,13.969 17.665,14.745 16.884,15.096L16.595,15.542L16.595,30.96C16.595,31.133 16.454,31.274 16.281,31.274L15.619,31.274Z" style="fill:rgb(86,76,61);stroke:rgb(86,76,61);stroke-width:1.05px;"/>
                </g>
                <g transform="matrix(0.950295,0,0,0.950295,0.795308,0.794335)">
                    <path d="M6.603,21.657C6.37,21.657 6.152,21.553 6.004,21.373C4.107,19.067 3.064,16.155 3.064,13.174C3.064,6.041 8.868,0.238 16.001,0.238C16.493,0.238 16.995,0.266 17.49,0.321C23.213,0.96 27.969,5.555 28.796,11.246C29.31,14.782 28.398,18.272 26.228,21.072C26.086,21.257 25.871,21.363 25.64,21.363C25.391,21.363 25.163,21.238 25.029,21.028L24.961,20.92C24.678,20.472 24.682,19.892 24.972,19.478C26.276,17.626 26.965,15.446 26.965,13.174C26.965,7.128 22.046,2.208 15.999,2.208C15.576,2.208 15.148,2.232 14.727,2.28C9.904,2.823 5.88,6.696 5.161,11.49C4.718,14.442 5.452,17.37 7.227,19.734C7.562,20.183 7.573,20.808 7.257,21.292C7.107,21.523 6.869,21.657 6.603,21.657Z" style="fill:rgb(86,76,61);stroke:rgb(86,76,61);stroke-width:1.05px;"/>
                </g>
                <g transform="matrix(0.950295,0,0,0.950295,0.795308,0.794335)">
                    <path d="M6.604,21.168C6.553,21.168 6.457,21.154 6.382,21.062C4.558,18.843 3.553,16.041 3.553,13.174C3.553,6.31 9.137,0.726 16.002,0.726C16.477,0.726 16.96,0.753 17.437,0.807C22.943,1.422 27.518,5.842 28.313,11.317C28.808,14.721 27.93,18.079 25.842,20.774C25.774,20.862 25.686,20.875 25.641,20.875C25.592,20.875 25.503,20.861 25.443,20.766L25.377,20.661C25.197,20.376 25.196,20.014 25.374,19.76C26.735,17.825 27.456,15.548 27.456,13.174C27.455,6.858 22.316,1.72 16,1.72C15.561,1.72 15.115,1.745 14.674,1.794C9.633,2.362 5.429,6.409 4.678,11.417C4.215,14.5 4.981,17.557 6.836,20.027C7.047,20.31 7.053,20.711 6.847,21.024C6.763,21.156 6.65,21.168 6.604,21.168Z" style="fill:rgb(86,76,61);stroke:rgb(86,76,61);stroke-width:1.05px;"/>
                </g>
                <g transform="matrix(0.950295,0,0,0.950295,0.795308,0.794335)">
                    <path d="M10.3,18.703C10.012,18.703 9.742,18.575 9.559,18.352C8.338,16.867 7.665,14.99 7.665,13.07C7.665,8.474 11.404,4.735 16,4.735C16.315,4.735 16.635,4.753 16.958,4.788C20.646,5.2 23.712,8.162 24.245,11.83C24.576,14.107 23.988,16.355 22.59,18.159C22.411,18.391 22.14,18.524 21.848,18.524C21.527,18.524 21.235,18.363 21.064,18.092C20.742,17.583 20.751,17.026 21.045,16.611C21.777,15.571 22.164,14.346 22.164,13.069C22.164,9.671 19.399,6.906 16.001,6.906C15.764,6.906 15.526,6.919 15.284,6.947C12.573,7.252 10.313,9.428 9.91,12.121C9.662,13.782 10.074,15.427 11.07,16.755C11.396,17.189 11.412,17.794 11.108,18.259C10.923,18.542 10.624,18.703 10.3,18.703Z" style="fill:rgb(86,76,61);stroke:rgb(86,76,61);stroke-width:1.05px;"/>
                </g>
                <g transform="matrix(0.950295,0,0,0.950295,0.795308,0.794335)">
                    <path d="M10.678,17.048C9.659,15.69 9.143,13.933 9.425,12.048C9.864,9.119 12.284,6.793 15.228,6.461C19.247,6.009 22.651,9.141 22.651,13.069C22.651,14.492 22.204,15.811 21.442,16.893C21.259,17.152 21.266,17.501 21.436,17.769L21.476,17.832C21.641,18.094 22.014,18.105 22.204,17.86C23.449,16.253 24.09,14.156 23.761,11.9C23.255,8.423 20.395,5.663 16.903,5.273C12.165,4.744 8.153,8.438 8.153,13.069C8.153,14.958 8.824,16.688 9.937,18.042C10.137,18.286 10.517,18.268 10.69,18.004L10.697,17.993C10.885,17.704 10.885,17.324 10.678,17.048Z" style="fill:rgb(86,76,61);stroke:rgb(86,76,61);stroke-width:1.05px;"/>
                </g>
            </g>
        </g>
    </g>
    <defs>
        <radialGradient id="_Radial1" cx="0" cy="0" r="1" gradientUnits="userSpaceOnUse" gradientTransform="matrix(118.7544,0,0,118.7544,128.583,127.832)"><stop offset="0" style="stop-color:rgb(204,185,126);stop-opacity:1"/><stop offset="0.25" style="stop-color:rgb(194,175,119);stop-opacity:1"/><stop offset="0.59" style="stop-color:rgb(172,154,104);stop-opacity:1"/><stop offset="0.99" style="stop-color:rgb(140,124,83);stop-opacity:1"/><stop offset="1" style="stop-color:rgb(139,123,82);stop-opacity:1"/></radialGradient>
    </defs>
</svg>
